<svg width="700" height="150" viewBox="0 0 700 150" fill="none" xmlns="http://www.w3.org/2000/svg">
<path d="M99 11L99 139" stroke="#E6E6E6" stroke-width="3" stroke-linecap="round"/>
<path d="M136 11L136 139" stroke="#E6E6E6" stroke-width="3" stroke-linecap="round"/>
<path d="M61 11L61 139" stroke="#E6E6E6" stroke-width="3" stroke-linecap="round"/>
<path d="M24 11L24 139" stroke="#E6E6E6" stroke-width="3" stroke-linecap="round"/>
<path d="M136 100L99 88" stroke="#E6E6E6" stroke-width="2"/>
<path d="M99 88L61 102" stroke="#E6E6E6" stroke-width="2"/>
<path d="M99 93L61 115" stroke="#E6E6E6" stroke-width="2"/>
<path d="M99 93L136 104" stroke="#E6E6E6" stroke-width="2"/>
<path d="M99 48L61 63" stroke="#E6E6E6" stroke-width="2"/>
<path d="M136 127.706L99 116.412" stroke="#E6E6E6" stroke-width="2"/>
<path d="M99 116.412L61 127.706" stroke="#E6E6E6" stroke-width="2"/>
<path d="M24 48L61 63" stroke="#E6E6E6" stroke-width="2"/>
<path d="M24 51L61 102" stroke="#E6E6E6" stroke-width="2"/>
<path d="M24 69L61 115" stroke="#E6E6E6" stroke-width="2"/>
<path d="M99 48L136 91" stroke="#E6E6E6" stroke-width="2"/>
<path d="M99 17L136 85" stroke="#E6E6E6" stroke-width="2"/>
<path d="M99 17L61 57" stroke="#E6E6E6" stroke-width="2"/>
<path d="M24 17L61 57" stroke="#E6E6E6" stroke-width="2"/>
<path d="M61 128L99 62" stroke="#3A5DAE" stroke-width="16"/>
<path d="M61 128L99 110" stroke="#3A5DAE" stroke-width="16"/>
<path d="M99 62L136 128" stroke="#3A5DAE" stroke-width="16"/>
<path d="M99 110L136 128" stroke="#3A5DAE" stroke-width="16"/>
<circle cx="136" cy="128" r="7" fill="#D6DBD4" stroke="#3A5DAE" stroke-width="2"/>
<circle cx="99" cy="62" r="7" fill="#D6DBD4" stroke="#3A5DAE" stroke-width="2"/>
<circle cx="61" cy="128" r="7" fill="#D6DBD4" stroke="#3A5DAE" stroke-width="2"/>
<circle cx="99" cy="110" r="7" fill="#D6DBD4" stroke="#3A5DAE" stroke-width="2"/>
<path d="M61 88L99 22" stroke="#A4925A" stroke-width="16"/>
<circle cx="99" cy="22" r="7" fill="#D6DBD4" stroke="#A4925A" stroke-width="2"/>
<path d="M24 22L61 88" stroke="#A4925A" stroke-width="16"/>
<circle cx="61" cy="88" r="7" fill="#D6DBD4" stroke="#A4925A" stroke-width="2"/>
<circle cx="24" cy="22" r="7" fill="#D6DBD4" stroke="#A4925A" stroke-width="2"/>
<path d="M163.432 36.136H160.832V32.704H176.12V36.136H171.96L176.692 51.528L179.76 62.656H180.072L183.348 51.528L188.236 36.136H184.076V32.704H195.256V36.136H192.656L181.632 69H174.456L163.432 36.136ZM204.034 38.164C202.578 38.164 201.434 37.7653 200.602 36.968C199.805 36.1707 199.406 35.096 199.406 33.744V33.484C199.406 32.132 199.805 31.0573 200.602 30.26C201.434 29.4627 202.578 29.064 204.034 29.064C205.49 29.064 206.617 29.4627 207.414 30.26C208.246 31.0573 208.662 32.132 208.662 33.484V33.744C208.662 35.096 208.246 36.1707 207.414 36.968C206.617 37.7653 205.49 38.164 204.034 38.164ZM197.014 65.568H200.134V47.004L197.014 46.328V43.364L208.038 41.128V65.568H211.158V69H197.014V65.568ZM226.236 69.624C224.329 69.624 222.873 69.2773 221.868 68.584C220.862 67.856 220.221 67.0587 219.944 66.192H219.736V69H214.64V60.888H219.736V61.72C219.736 63.072 220.152 64.0947 220.984 64.788C221.816 65.4813 223.168 65.828 225.04 65.828C226.704 65.828 227.917 65.568 228.68 65.048C229.442 64.528 229.824 63.7307 229.824 62.656C229.824 61.7893 229.546 61.1307 228.992 60.68C228.437 60.1947 227.518 59.7613 226.236 59.38L223.792 58.704C220.776 57.872 218.54 56.7627 217.084 55.376C215.662 53.9547 214.952 52.048 214.952 49.656C214.952 46.9173 215.853 44.82 217.656 43.364C219.458 41.8733 221.833 41.128 224.78 41.128C226.617 41.128 228.021 41.4747 228.992 42.168C229.962 42.8613 230.586 43.6413 230.864 44.508H231.072V41.752H236.168V49.864H231.072V48.928C231.072 47.6107 230.656 46.6227 229.824 45.964C229.026 45.2707 227.709 44.924 225.872 44.924C223.237 44.924 221.92 45.8773 221.92 47.784C221.92 48.6853 222.18 49.4133 222.7 49.968C223.254 50.5227 224.242 50.9733 225.664 51.32L227.9 51.892C229.356 52.2733 230.638 52.7067 231.748 53.192C232.857 53.6773 233.776 54.2667 234.504 54.96C235.266 55.6187 235.838 56.4333 236.22 57.404C236.601 58.34 236.792 59.4667 236.792 60.784C236.792 63.6613 235.821 65.8627 233.88 67.388C231.938 68.8787 229.39 69.624 226.236 69.624ZM252.278 69.624C248.95 69.624 246.593 68.792 245.206 67.128C243.854 65.4293 243.178 62.8987 243.178 59.536V47.004L240.058 46.328V43.364L251.082 41.128V59.276C251.082 61.1133 251.394 62.4307 252.018 63.228C252.677 63.9907 253.769 64.372 255.294 64.372C255.883 64.372 256.473 64.3027 257.062 64.164C257.651 63.9907 258.171 63.748 258.622 63.436C259.073 63.0893 259.437 62.6733 259.714 62.188C259.991 61.668 260.13 61.044 260.13 60.316V47.004L257.01 46.328V43.364L268.034 41.128V63.748L271.154 64.424V67.388L260.286 69.624V64.476H260.026C259.541 65.8627 258.674 67.076 257.426 68.116C256.178 69.1213 254.462 69.624 252.278 69.624ZM282.722 69.624C279.775 69.624 277.626 68.948 276.274 67.596C274.957 66.2093 274.298 64.2853 274.298 61.824C274.298 56.4507 278.267 53.764 286.206 53.764H289.846V50.8C289.846 48.6853 289.447 47.0907 288.65 46.016C287.853 44.9413 286.466 44.404 284.49 44.404C283.762 44.404 283.138 44.456 282.618 44.56C282.098 44.664 281.647 44.8027 281.266 44.976V45.236C281.613 45.4093 281.942 45.7213 282.254 46.172C282.601 46.6227 282.774 47.2293 282.774 47.992C282.774 49.032 282.445 49.916 281.786 50.644C281.127 51.3373 280.139 51.684 278.822 51.684C277.782 51.684 276.915 51.32 276.222 50.592C275.529 49.864 275.182 48.9453 275.182 47.836C275.182 47.004 275.425 46.1893 275.91 45.392C276.395 44.56 277.123 43.832 278.094 43.208C279.065 42.584 280.261 42.0813 281.682 41.7C283.138 41.3187 284.802 41.128 286.674 41.128C290.453 41.128 293.243 41.9427 295.046 43.572C296.849 45.1667 297.75 47.4373 297.75 50.384V65.568H300.87V68.532C300.281 68.8787 299.518 69.1387 298.582 69.312C297.646 69.52 296.675 69.624 295.67 69.624C293.763 69.624 292.411 69.1907 291.614 68.324C290.851 67.4227 290.47 66.3133 290.47 64.996V64.892H290.158C289.915 65.4813 289.603 66.0533 289.222 66.608C288.875 67.1627 288.407 67.6653 287.818 68.116C287.263 68.5667 286.57 68.9307 285.738 69.208C284.906 69.4853 283.901 69.624 282.722 69.624ZM285.686 64.944C286.969 64.944 287.974 64.6493 288.702 64.06C289.465 63.4707 289.846 62.448 289.846 60.992V56.884H287.038C285.374 56.884 284.126 57.2307 283.294 57.924C282.497 58.6173 282.098 59.6053 282.098 60.888V61.72C282.098 62.8293 282.427 63.644 283.086 64.164C283.745 64.684 284.611 64.944 285.686 64.944ZM303.693 65.568H306.813V35.356L303.693 34.68V31.716L314.717 29.48V65.568H317.837V69H303.693V65.568ZM332.064 65.568H334.664L345.948 32.704H353.124L364.408 65.568H367.008V69H351.772V65.568H355.932L353.436 57.924H341.58L339.084 65.568H343.244V69H332.064V65.568ZM342.62 54.336H352.5L347.612 39.048H347.404L342.62 54.336ZM369.619 65.568H372.739V47.004L369.619 46.328V43.364L380.487 41.128V46.276H380.747C381.233 44.8893 382.099 43.6933 383.347 42.688C384.595 41.648 386.311 41.128 388.495 41.128C391.823 41.128 394.163 41.9773 395.515 43.676C396.902 45.34 397.595 47.8533 397.595 51.216V65.568H400.715V69H386.831V65.568H389.691V51.476C389.691 49.6387 389.362 48.3387 388.703 47.576C388.079 46.7787 387.005 46.38 385.479 46.38C384.89 46.38 384.301 46.4667 383.711 46.64C383.122 46.7787 382.602 47.0213 382.151 47.368C381.701 47.68 381.337 48.096 381.059 48.616C380.782 49.1013 380.643 49.708 380.643 50.436V65.568H383.503V69H369.619V65.568ZM412.265 69.624C409.318 69.624 407.169 68.948 405.817 67.596C404.5 66.2093 403.841 64.2853 403.841 61.824C403.841 56.4507 407.81 53.764 415.749 53.764H419.389V50.8C419.389 48.6853 418.99 47.0907 418.193 46.016C417.396 44.9413 416.009 44.404 414.033 44.404C413.305 44.404 412.681 44.456 412.161 44.56C411.641 44.664 411.19 44.8027 410.809 44.976V45.236C411.156 45.4093 411.485 45.7213 411.797 46.172C412.144 46.6227 412.317 47.2293 412.317 47.992C412.317 49.032 411.988 49.916 411.329 50.644C410.67 51.3373 409.682 51.684 408.365 51.684C407.325 51.684 406.458 51.32 405.765 50.592C405.072 49.864 404.725 48.9453 404.725 47.836C404.725 47.004 404.968 46.1893 405.453 45.392C405.938 44.56 406.666 43.832 407.637 43.208C408.608 42.584 409.804 42.0813 411.225 41.7C412.681 41.3187 414.345 41.128 416.217 41.128C419.996 41.128 422.786 41.9427 424.589 43.572C426.392 45.1667 427.293 47.4373 427.293 50.384V65.568H430.413V68.532C429.824 68.8787 429.061 69.1387 428.125 69.312C427.189 69.52 426.218 69.624 425.213 69.624C423.306 69.624 421.954 69.1907 421.157 68.324C420.394 67.4227 420.013 66.3133 420.013 64.996V64.892H419.701C419.458 65.4813 419.146 66.0533 418.765 66.608C418.418 67.1627 417.95 67.6653 417.361 68.116C416.806 68.5667 416.113 68.9307 415.281 69.208C414.449 69.4853 413.444 69.624 412.265 69.624ZM415.229 64.944C416.512 64.944 417.517 64.6493 418.245 64.06C419.008 63.4707 419.389 62.448 419.389 60.992V56.884H416.581C414.917 56.884 413.669 57.2307 412.837 57.924C412.04 58.6173 411.641 59.6053 411.641 60.888V61.72C411.641 62.8293 411.97 63.644 412.629 64.164C413.288 64.684 414.154 64.944 415.229 64.944ZM433.236 65.568H436.356V35.356L433.236 34.68V31.716L444.26 29.48V65.568H447.38V69H433.236V65.568ZM455.293 80.024C453.213 80.024 451.601 79.504 450.457 78.464C449.313 77.4587 448.741 76.2453 448.741 74.824C448.741 73.576 449.088 72.6053 449.781 71.912C450.509 71.2187 451.497 70.872 452.745 70.872C453.958 70.872 454.894 71.2533 455.553 72.016C456.212 72.7787 456.541 73.6627 456.541 74.668C456.541 75.1187 456.472 75.5347 456.333 75.916C456.194 76.332 456.038 76.6613 455.865 76.904L455.969 77.216C456.108 77.2507 456.298 77.268 456.541 77.268C457.442 77.268 458.274 76.7827 459.037 75.812C459.8 74.8413 460.528 73.4547 461.221 71.652L461.741 70.3L451.861 45.184H449.365V41.752H463.041V45.184H460.129L465.589 60.94H465.901L471.413 45.184H468.501V41.752H478.069V45.184H475.625L464.705 71.808C464.324 72.744 463.873 73.6973 463.353 74.668C462.833 75.6733 462.209 76.5573 461.481 77.32C460.753 78.1173 459.886 78.7587 458.881 79.244C457.876 79.764 456.68 80.024 455.293 80.024ZM489.264 69.52C487.184 69.52 485.641 69.0693 484.636 68.168C483.665 67.232 483.18 65.8627 483.18 64.06V45.392H479.54V41.752H480.944C482.088 41.752 482.92 41.5093 483.44 41.024C483.995 40.504 484.515 39.7413 485 38.736L487.184 34.212H491.084V41.752H497.064V45.392H491.084V65.464H497.064V68.532C496.509 68.7747 495.521 69 494.1 69.208C492.679 69.416 491.067 69.52 489.264 69.52ZM507.35 38.164C505.894 38.164 504.75 37.7653 503.918 36.968C503.121 36.1707 502.722 35.096 502.722 33.744V33.484C502.722 32.132 503.121 31.0573 503.918 30.26C504.75 29.4627 505.894 29.064 507.35 29.064C508.806 29.064 509.933 29.4627 510.73 30.26C511.562 31.0573 511.978 32.132 511.978 33.484V33.744C511.978 35.096 511.562 36.1707 510.73 36.968C509.933 37.7653 508.806 38.164 507.35 38.164ZM500.33 65.568H503.45V47.004L500.33 46.328V43.364L511.354 41.128V65.568H514.474V69H500.33V65.568ZM531.112 69.624C528.928 69.624 527.004 69.26 525.34 68.532C523.711 67.804 522.324 66.7987 521.18 65.516C520.071 64.2333 519.222 62.7253 518.632 60.992C518.078 59.2587 517.8 57.3693 517.8 55.324C517.8 53.036 518.164 51.0253 518.892 49.292C519.62 47.524 520.608 46.0333 521.856 44.82C523.139 43.6067 524.63 42.688 526.328 42.064C528.062 41.44 529.916 41.128 531.892 41.128C535.082 41.128 537.526 41.7867 539.224 43.104C540.958 44.4213 541.824 46.0853 541.824 48.096C541.824 49.4133 541.46 50.4707 540.732 51.268C540.004 52.0307 538.999 52.412 537.716 52.412C536.434 52.412 535.446 52.0827 534.752 51.424C534.059 50.7307 533.712 49.8293 533.712 48.72C533.712 47.8187 533.938 47.0733 534.388 46.484C534.874 45.8947 535.411 45.4613 536 45.184V44.872C535.654 44.768 535.238 44.664 534.752 44.56C534.302 44.456 533.678 44.404 532.88 44.404C530.766 44.404 529.119 45.08 527.94 46.432C526.762 47.7493 526.172 49.656 526.172 52.152V57.56C526.172 59.848 526.71 61.5987 527.784 62.812C528.859 63.9907 530.35 64.58 532.256 64.58C534.198 64.58 535.74 64.1293 536.884 63.228C538.028 62.3267 538.843 61.2693 539.328 60.056L542.24 61.772C541.928 62.6387 541.478 63.54 540.888 64.476C540.334 65.412 539.606 66.2613 538.704 67.024C537.803 67.7867 536.728 68.4107 535.48 68.896C534.232 69.3813 532.776 69.624 531.112 69.624ZM557.38 69.624C555.474 69.624 554.018 69.2773 553.012 68.584C552.007 67.856 551.366 67.0587 551.088 66.192H550.88V69H545.784V60.888H550.88V61.72C550.88 63.072 551.296 64.0947 552.128 64.788C552.96 65.4813 554.312 65.828 556.184 65.828C557.848 65.828 559.062 65.568 559.824 65.048C560.587 64.528 560.968 63.7307 560.968 62.656C560.968 61.7893 560.691 61.1307 560.136 60.68C559.582 60.1947 558.663 59.7613 557.38 59.38L554.936 58.704C551.92 57.872 549.684 56.7627 548.228 55.376C546.807 53.9547 546.096 52.048 546.096 49.656C546.096 46.9173 546.998 44.82 548.8 43.364C550.603 41.8733 552.978 41.128 555.924 41.128C557.762 41.128 559.166 41.4747 560.136 42.168C561.107 42.8613 561.731 43.6413 562.008 44.508H562.216V41.752H567.312V49.864H562.216V48.928C562.216 47.6107 561.8 46.6227 560.968 45.964C560.171 45.2707 558.854 44.924 557.016 44.924C554.382 44.924 553.064 45.8773 553.064 47.784C553.064 48.6853 553.324 49.4133 553.844 49.968C554.399 50.5227 555.387 50.9733 556.808 51.32L559.044 51.892C560.5 52.2733 561.783 52.7067 562.892 53.192C564.002 53.6773 564.92 54.2667 565.648 54.96C566.411 55.6187 566.983 56.4333 567.364 57.404C567.746 58.34 567.936 59.4667 567.936 60.784C567.936 63.6613 566.966 65.8627 565.024 67.388C563.083 68.8787 560.535 69.624 557.38 69.624ZM584.277 65.568H587.917V36.136H584.277V32.704H600.241V36.136H596.341V65.256H606.221V58.288H612.253V69H584.277V65.568ZM625.038 69.624C622.092 69.624 619.942 68.948 618.59 67.596C617.273 66.2093 616.614 64.2853 616.614 61.824C616.614 56.4507 620.584 53.764 628.522 53.764H632.162V50.8C632.162 48.6853 631.764 47.0907 630.966 46.016C630.169 44.9413 628.782 44.404 626.806 44.404C626.078 44.404 625.454 44.456 624.934 44.56C624.414 44.664 623.964 44.8027 623.582 44.976V45.236C623.929 45.4093 624.258 45.7213 624.57 46.172C624.917 46.6227 625.09 47.2293 625.09 47.992C625.09 49.032 624.761 49.916 624.102 50.644C623.444 51.3373 622.456 51.684 621.138 51.684C620.098 51.684 619.232 51.32 618.538 50.592C617.845 49.864 617.498 48.9453 617.498 47.836C617.498 47.004 617.741 46.1893 618.226 45.392C618.712 44.56 619.44 43.832 620.41 43.208C621.381 42.584 622.577 42.0813 623.998 41.7C625.454 41.3187 627.118 41.128 628.99 41.128C632.769 41.128 635.56 41.9427 637.362 43.572C639.165 45.1667 640.066 47.4373 640.066 50.384V65.568H643.186V68.532C642.597 68.8787 641.834 69.1387 640.898 69.312C639.962 69.52 638.992 69.624 637.986 69.624C636.08 69.624 634.728 69.1907 633.93 68.324C633.168 67.4227 632.786 66.3133 632.786 64.996V64.892H632.474C632.232 65.4813 631.92 66.0533 631.538 66.608C631.192 67.1627 630.724 67.6653 630.134 68.116C629.58 68.5667 628.886 68.9307 628.054 69.208C627.222 69.4853 626.217 69.624 625.038 69.624ZM628.002 64.944C629.285 64.944 630.29 64.6493 631.018 64.06C631.781 63.4707 632.162 62.448 632.162 60.992V56.884H629.354C627.69 56.884 626.442 57.2307 625.61 57.924C624.813 58.6173 624.414 59.6053 624.414 60.888V61.72C624.414 62.8293 624.744 63.644 625.402 64.164C626.061 64.684 626.928 64.944 628.002 64.944ZM664.157 69.624C662.147 69.624 660.448 69.1387 659.061 68.168C657.709 67.1973 656.791 66.0707 656.305 64.788H656.045L652.405 69H648.765V35.356L645.645 34.68V31.716L656.669 29.48V45.808H656.981C657.467 44.5947 658.316 43.52 659.529 42.584C660.743 41.6133 662.285 41.128 664.157 41.128C665.821 41.128 667.312 41.4747 668.629 42.168C669.981 42.8267 671.125 43.78 672.061 45.028C672.997 46.276 673.708 47.784 674.193 49.552C674.713 51.2853 674.973 53.2267 674.973 55.376C674.973 57.5253 674.713 59.484 674.193 61.252C673.708 62.9853 672.997 64.476 672.061 65.724C671.125 66.972 669.981 67.9427 668.629 68.636C667.312 69.2947 665.821 69.624 664.157 69.624ZM661.505 64.84C662.961 64.84 664.175 64.3373 665.145 63.332C666.116 62.3267 666.601 60.8533 666.601 58.912V51.788C666.601 49.8467 666.116 48.3733 665.145 47.368C664.175 46.3627 662.961 45.86 661.505 45.86C660.119 45.86 658.957 46.2933 658.021 47.16C657.12 48.0267 656.669 49.188 656.669 50.644V60.056C656.669 61.512 657.12 62.6733 658.021 63.54C658.957 64.4067 660.119 64.84 661.505 64.84ZM202.252 125.8C199.719 125.8 197.452 125.4 195.452 124.6C193.479 123.8 191.799 122.68 190.412 121.24C189.052 119.8 188.012 118.08 187.292 116.08C186.572 114.053 186.212 111.813 186.212 109.36C186.212 106.933 186.585 104.693 187.332 102.64C188.079 100.587 189.145 98.8133 190.532 97.32C191.919 95.8267 193.599 94.6667 195.572 93.84C197.545 93.0133 199.772 92.6 202.252 92.6C204.625 92.6 206.785 92.96 208.732 93.68C210.679 94.3733 212.332 95.3867 213.692 96.72C215.079 98.0267 216.145 99.6133 216.892 101.48C217.665 103.32 218.052 105.373 218.052 107.64C218.052 109.16 217.892 110.573 217.572 111.88C217.279 113.187 216.825 114.307 216.212 115.24C215.625 116.173 214.865 116.907 213.932 117.44C213.025 117.973 211.959 118.24 210.732 118.24C209.212 118.24 207.985 117.893 207.052 117.2C206.119 116.507 205.545 115.6 205.332 114.48H205.132C204.892 115.6 204.399 116.507 203.652 117.2C202.905 117.893 201.879 118.24 200.572 118.24C198.732 118.24 197.199 117.507 195.972 116.04C194.772 114.573 194.172 112.373 194.172 109.44C194.172 106.507 194.772 104.307 195.972 102.84C197.199 101.373 198.732 100.64 200.572 100.64C201.772 100.64 202.759 100.933 203.532 101.52C204.305 102.08 204.799 102.813 205.012 103.72H205.252L207.452 101H209.572V113.52C209.572 114.32 209.705 114.947 209.972 115.4C210.239 115.827 210.665 116.04 211.252 116.04C212.159 116.04 212.905 115.453 213.492 114.28C214.079 113.08 214.372 111.187 214.372 108.6V107.08C214.372 105.213 214.065 103.533 213.452 102.04C212.839 100.547 211.985 99.28 210.892 98.24C209.825 97.2 208.545 96.4 207.052 95.84C205.585 95.28 203.985 95 202.252 95C200.412 95 198.732 95.3333 197.212 96C195.692 96.6667 194.385 97.6 193.292 98.8C192.225 100 191.385 101.44 190.772 103.12C190.185 104.773 189.892 106.6 189.892 108.6V110.12C189.892 112.147 190.185 113.987 190.772 115.64C191.385 117.267 192.225 118.653 193.292 119.8C194.385 120.947 195.692 121.827 197.212 122.44C198.732 123.08 200.412 123.4 202.252 123.4H211.252V125C210.639 125.133 209.945 125.253 209.172 125.36C208.399 125.467 207.599 125.547 206.772 125.6C205.945 125.68 205.132 125.733 204.332 125.76C203.559 125.787 202.865 125.8 202.252 125.8ZM202.012 115.52C202.865 115.52 203.545 115.227 204.052 114.64C204.585 114.053 204.852 113.44 204.852 112.8V105.72C204.852 105.053 204.585 104.493 204.052 104.04C203.545 103.587 202.865 103.36 202.012 103.36C201.105 103.36 200.412 103.693 199.932 104.36C199.452 105.027 199.212 105.88 199.212 106.92V111.96C199.212 113 199.452 113.853 199.932 114.52C200.412 115.187 201.105 115.52 202.012 115.52ZM244.161 121.48C242.347 121.48 240.667 121.147 239.121 120.48C237.601 119.813 236.294 118.867 235.201 117.64C234.107 116.387 233.254 114.88 232.641 113.12C232.027 111.333 231.721 109.32 231.721 107.08C231.721 104.733 232.054 102.667 232.721 100.88C233.414 99.0667 234.347 97.5467 235.521 96.32C236.721 95.0933 238.107 94.1733 239.681 93.56C241.254 92.92 242.934 92.6 244.721 92.6C246.561 92.6 248.014 92.9067 249.081 93.52C250.174 94.1333 250.894 94.76 251.241 95.4H251.481V93.08H256.121V101.96H251.481V100.2C251.481 98.8133 251.054 97.7067 250.201 96.88C249.347 96.0533 247.961 95.64 246.041 95.64C243.614 95.64 241.801 96.2667 240.601 97.52C239.427 98.7467 238.841 100.667 238.841 103.28V110.92C238.841 113.347 239.361 115.187 240.401 116.44C241.467 117.667 242.961 118.28 244.881 118.28C246.747 118.28 248.121 117.813 249.001 116.88C249.881 115.92 250.321 114.733 250.321 113.32V109.56H246.321V106.92H258.761V109.56H256.721V121H254.521L252.081 117H251.801C251.667 117.453 251.387 117.947 250.961 118.48C250.534 118.987 249.974 119.467 249.281 119.92C248.614 120.347 247.841 120.707 246.961 121C246.107 121.32 245.174 121.48 244.161 121.48ZM272.416 121.48C270.763 121.48 269.296 121.213 268.016 120.68C266.763 120.12 265.696 119.36 264.816 118.4C263.963 117.413 263.31 116.253 262.856 114.92C262.403 113.56 262.176 112.08 262.176 110.48C262.176 108.8 262.403 107.28 262.856 105.92C263.336 104.56 264.003 103.413 264.856 102.48C265.736 101.547 266.776 100.827 267.976 100.32C269.203 99.8133 270.563 99.56 272.056 99.56C273.55 99.56 274.896 99.7867 276.096 100.24C277.296 100.693 278.31 101.347 279.136 102.2C279.99 103.027 280.643 104.04 281.096 105.24C281.55 106.44 281.776 107.773 281.776 109.24V110.6H268.616V112.2C268.616 113.987 269.083 115.333 270.016 116.24C270.95 117.147 272.19 117.6 273.736 117.6C275.176 117.6 276.336 117.28 277.216 116.64C278.096 115.973 278.723 115.173 279.096 114.24L281.296 115.56C281.056 116.227 280.71 116.907 280.256 117.6C279.803 118.293 279.216 118.933 278.496 119.52C277.776 120.08 276.91 120.547 275.896 120.92C274.883 121.293 273.723 121.48 272.416 121.48ZM268.616 108.08H275.496V107.52C275.496 105.6 275.19 104.253 274.576 103.48C273.963 102.707 273.123 102.32 272.056 102.32C270.99 102.32 270.15 102.707 269.536 103.48C268.923 104.253 268.616 105.6 268.616 107.52V108.08ZM294.953 118.6C297.406 118.6 298.633 117.133 298.633 114.2V106.84C298.633 103.907 297.406 102.44 294.953 102.44C292.499 102.44 291.273 103.907 291.273 106.84V114.2C291.273 117.133 292.499 118.6 294.953 118.6ZM294.953 121.48C293.433 121.48 292.046 121.24 290.793 120.76C289.566 120.253 288.499 119.533 287.593 118.6C286.713 117.667 286.033 116.52 285.553 115.16C285.073 113.8 284.833 112.253 284.833 110.52C284.833 108.787 285.073 107.24 285.553 105.88C286.033 104.52 286.713 103.373 287.593 102.44C288.499 101.507 289.566 100.8 290.793 100.32C292.046 99.8133 293.433 99.56 294.953 99.56C296.473 99.56 297.846 99.8133 299.073 100.32C300.326 100.8 301.393 101.507 302.273 102.44C303.179 103.373 303.873 104.52 304.353 105.88C304.833 107.24 305.073 108.787 305.073 110.52C305.073 112.253 304.833 113.8 304.353 115.16C303.873 116.52 303.179 117.667 302.273 118.6C301.393 119.533 300.326 120.253 299.073 120.76C297.846 121.24 296.473 121.48 294.953 121.48ZM308.074 118.36H310.474V104.08L308.074 103.56V101.28L316.434 99.56V103.52H316.594C316.967 102.4 317.567 101.467 318.394 100.72C319.22 99.9467 320.3 99.56 321.634 99.56C322.94 99.56 323.967 99.92 324.714 100.64C325.46 101.333 325.834 102.293 325.834 103.52C325.834 104.587 325.554 105.427 324.994 106.04C324.434 106.653 323.647 106.96 322.634 106.96C321.674 106.96 320.94 106.707 320.434 106.2C319.927 105.667 319.674 105.04 319.674 104.32C319.674 104 319.74 103.707 319.874 103.44C320.007 103.173 320.167 103 320.354 102.92L320.314 102.72C320.234 102.693 320.114 102.68 319.954 102.68C319.527 102.68 319.114 102.8 318.714 103.04C318.314 103.28 317.954 103.587 317.634 103.96C317.314 104.333 317.047 104.747 316.834 105.2C316.647 105.653 316.554 106.093 316.554 106.52V118.36H319.754V121H308.074V118.36ZM337.245 129.48C335.272 129.48 333.632 129.373 332.325 129.16C331.018 128.947 329.965 128.64 329.165 128.24C328.392 127.84 327.845 127.36 327.525 126.8C327.205 126.24 327.045 125.6 327.045 124.88C327.045 123.867 327.472 123.04 328.325 122.4C329.205 121.787 330.285 121.373 331.565 121.16V121C330.632 120.787 329.872 120.347 329.285 119.68C328.725 118.987 328.445 118.107 328.445 117.04C328.445 115.813 328.845 114.867 329.645 114.2C330.472 113.507 331.458 113.027 332.605 112.76V112.6C331.245 112.067 330.192 111.293 329.445 110.28C328.725 109.267 328.365 108 328.365 106.48C328.365 105.36 328.578 104.373 329.005 103.52C329.432 102.667 330.032 101.947 330.805 101.36C331.578 100.773 332.512 100.333 333.605 100.04C334.698 99.72 335.912 99.56 337.245 99.56C338.205 99.56 339.098 99.64 339.925 99.8C340.778 99.96 341.592 100.227 342.365 100.6C342.658 97.6667 343.978 96.2 346.325 96.2C347.098 96.2 347.738 96.4267 348.245 96.88C348.778 97.3067 349.045 97.9333 349.045 98.76C349.045 99.5333 348.805 100.16 348.325 100.64C347.872 101.093 347.218 101.32 346.365 101.32C345.378 101.32 344.605 100.987 344.045 100.32H343.885V101.52C344.605 102.107 345.165 102.8 345.565 103.6C345.992 104.4 346.205 105.36 346.205 106.48C346.205 107.6 345.992 108.587 345.565 109.44C345.138 110.293 344.525 111.013 343.725 111.6C342.952 112.187 342.018 112.64 340.925 112.96C339.832 113.253 338.618 113.4 337.285 113.4C336.725 113.4 336.192 113.373 335.685 113.32C335.178 113.267 334.685 113.187 334.205 113.08C333.458 113.56 333.085 114.173 333.085 114.92C333.085 115.48 333.298 115.907 333.725 116.2C334.152 116.467 334.832 116.6 335.765 116.6H340.405C341.845 116.6 343.072 116.747 344.085 117.04C345.125 117.307 345.965 117.693 346.605 118.2C347.245 118.707 347.712 119.32 348.005 120.04C348.298 120.733 348.445 121.52 348.445 122.4C348.445 124.613 347.525 126.347 345.685 127.6C343.845 128.853 341.032 129.48 337.245 129.48ZM337.285 110.64C339.285 110.64 340.285 109.413 340.285 106.96V106C340.285 103.547 339.285 102.32 337.285 102.32C335.285 102.32 334.285 103.547 334.285 106V106.96C334.285 109.413 335.285 110.64 337.285 110.64ZM331.965 124.36C331.965 125.213 332.298 125.84 332.965 126.24C333.658 126.667 334.765 126.88 336.285 126.88H338.845C341.912 126.88 343.445 125.973 343.445 124.16C343.445 123.28 343.138 122.693 342.525 122.4C341.938 122.107 341.072 121.96 339.925 121.96H333.125C332.752 122.253 332.458 122.573 332.245 122.92C332.058 123.293 331.965 123.773 331.965 124.36ZM356.208 97.28C355.088 97.28 354.208 96.9733 353.568 96.36C352.955 95.7467 352.648 94.92 352.648 93.88V93.68C352.648 92.64 352.955 91.8133 353.568 91.2C354.208 90.5867 355.088 90.28 356.208 90.28C357.328 90.28 358.195 90.5867 358.808 91.2C359.448 91.8133 359.768 92.64 359.768 93.68V93.88C359.768 94.92 359.448 95.7467 358.808 96.36C358.195 96.9733 357.328 97.28 356.208 97.28ZM350.808 118.36H353.208V104.08L350.808 103.56V101.28L359.288 99.56V118.36H361.688V121H350.808V118.36ZM370.527 121.48C368.26 121.48 366.607 120.96 365.567 119.92C364.553 118.853 364.047 117.373 364.047 115.48C364.047 111.347 367.1 109.28 373.207 109.28H376.007V107C376.007 105.373 375.7 104.147 375.087 103.32C374.473 102.493 373.407 102.08 371.887 102.08C371.327 102.08 370.847 102.12 370.447 102.2C370.047 102.28 369.7 102.387 369.407 102.52V102.72C369.673 102.853 369.927 103.093 370.167 103.44C370.433 103.787 370.567 104.253 370.567 104.84C370.567 105.64 370.313 106.32 369.807 106.88C369.3 107.413 368.54 107.68 367.527 107.68C366.727 107.68 366.06 107.4 365.527 106.84C364.993 106.28 364.727 105.573 364.727 104.72C364.727 104.08 364.913 103.453 365.287 102.84C365.66 102.2 366.22 101.64 366.967 101.16C367.713 100.68 368.633 100.293 369.727 100C370.847 99.7067 372.127 99.56 373.567 99.56C376.473 99.56 378.62 100.187 380.007 101.44C381.393 102.667 382.087 104.413 382.087 106.68V118.36H384.487V120.64C384.033 120.907 383.447 121.107 382.727 121.24C382.007 121.4 381.26 121.48 380.487 121.48C379.02 121.48 377.98 121.147 377.367 120.48C376.78 119.787 376.487 118.933 376.487 117.92V117.84H376.247C376.06 118.293 375.82 118.733 375.527 119.16C375.26 119.587 374.9 119.973 374.447 120.32C374.02 120.667 373.487 120.947 372.847 121.16C372.207 121.373 371.433 121.48 370.527 121.48ZM372.807 117.88C373.793 117.88 374.567 117.653 375.127 117.2C375.713 116.747 376.007 115.96 376.007 114.84V111.68H373.847C372.567 111.68 371.607 111.947 370.967 112.48C370.353 113.013 370.047 113.773 370.047 114.76V115.4C370.047 116.253 370.3 116.88 370.807 117.28C371.313 117.68 371.98 117.88 372.807 117.88ZM402.035 118.36H405.835V95.96H400.635V100.52H395.995V93.08H422.155V100.52H417.515V95.96H412.315V118.36H416.115V121H402.035V118.36ZM433.237 121.48C431.583 121.48 430.117 121.213 428.837 120.68C427.583 120.12 426.517 119.36 425.637 118.4C424.783 117.413 424.13 116.253 423.677 114.92C423.223 113.56 422.997 112.08 422.997 110.48C422.997 108.8 423.223 107.28 423.677 105.92C424.157 104.56 424.823 103.413 425.677 102.48C426.557 101.547 427.597 100.827 428.797 100.32C430.023 99.8133 431.383 99.56 432.877 99.56C434.37 99.56 435.717 99.7867 436.917 100.24C438.117 100.693 439.13 101.347 439.957 102.2C440.81 103.027 441.463 104.04 441.917 105.24C442.37 106.44 442.597 107.773 442.597 109.24V110.6H429.437V112.2C429.437 113.987 429.903 115.333 430.837 116.24C431.77 117.147 433.01 117.6 434.557 117.6C435.997 117.6 437.157 117.28 438.037 116.64C438.917 115.973 439.543 115.173 439.917 114.24L442.117 115.56C441.877 116.227 441.53 116.907 441.077 117.6C440.623 118.293 440.037 118.933 439.317 119.52C438.597 120.08 437.73 120.547 436.717 120.92C435.703 121.293 434.543 121.48 433.237 121.48ZM429.437 108.08H436.317V107.52C436.317 105.6 436.01 104.253 435.397 103.48C434.783 102.707 433.943 102.32 432.877 102.32C431.81 102.32 430.97 102.707 430.357 103.48C429.743 104.253 429.437 105.6 429.437 107.52V108.08ZM455.893 121.48C454.213 121.48 452.733 121.2 451.453 120.64C450.199 120.08 449.133 119.307 448.253 118.32C447.399 117.333 446.746 116.173 446.293 114.84C445.866 113.507 445.653 112.053 445.653 110.48C445.653 108.72 445.933 107.173 446.493 105.84C447.053 104.48 447.813 103.333 448.773 102.4C449.759 101.467 450.906 100.76 452.213 100.28C453.546 99.8 454.973 99.56 456.493 99.56C458.946 99.56 460.826 100.067 462.133 101.08C463.466 102.093 464.133 103.373 464.133 104.92C464.133 105.933 463.853 106.747 463.293 107.36C462.733 107.947 461.959 108.24 460.973 108.24C459.986 108.24 459.226 107.987 458.693 107.48C458.159 106.947 457.893 106.253 457.893 105.4C457.893 104.707 458.066 104.133 458.413 103.68C458.786 103.227 459.199 102.893 459.653 102.68V102.44C459.386 102.36 459.066 102.28 458.693 102.2C458.346 102.12 457.866 102.08 457.253 102.08C455.626 102.08 454.359 102.6 453.453 103.64C452.546 104.653 452.093 106.12 452.093 108.04V112.2C452.093 113.96 452.506 115.307 453.333 116.24C454.159 117.147 455.306 117.6 456.773 117.6C458.266 117.6 459.453 117.253 460.333 116.56C461.213 115.867 461.839 115.053 462.213 114.12L464.453 115.44C464.213 116.107 463.866 116.8 463.413 117.52C462.986 118.24 462.426 118.893 461.733 119.48C461.039 120.067 460.213 120.547 459.253 120.92C458.293 121.293 457.173 121.48 455.893 121.48ZM466.619 118.36H469.019V95.12L466.619 94.6V92.32L475.099 90.6V103.36H475.379C475.752 102.293 476.406 101.4 477.339 100.68C478.299 99.9333 479.566 99.56 481.139 99.56C483.699 99.56 485.499 100.213 486.539 101.52C487.606 102.8 488.139 104.733 488.139 107.32V118.36H490.539V121H479.859V118.36H482.059V107.52C482.059 106.107 481.806 105.107 481.299 104.52C480.819 103.907 479.992 103.6 478.819 103.6C478.366 103.6 477.912 103.667 477.459 103.8C477.032 103.907 476.632 104.093 476.259 104.36C475.912 104.6 475.632 104.92 475.419 105.32C475.206 105.693 475.099 106.16 475.099 106.72V118.36H477.299V121H466.619V118.36Z" fill="#2B2B2B"/>
</svg>
